<svg width="24" height="24" viewBox="0 0 24 24" fill="none" xmlns="http://www.w3.org/2000/svg">
<path d="M19.7221 2H7.49989C5.66211 2 4.16656 3.49556 4.16656 5.33333V6.44444H3.05545C2.441 6.44444 1.94434 6.94222 1.94434 7.55556C1.94434 8.16889 2.441 8.66667 3.05545 8.66667H4.16656V10.8889H3.05545C2.441 10.8889 1.94434 11.3867 1.94434 12C1.94434 12.6133 2.441 13.1111 3.05545 13.1111H4.16656V15.3333H3.05545C2.441 15.3333 1.94434 15.8311 1.94434 16.4444C1.94434 17.0578 2.441 17.5556 3.05545 17.5556H4.16656V18.6667C4.16656 20.5044 5.66211 22 7.49989 22H19.7221C21.5599 22 23.0554 20.5044 23.0554 18.6667V5.33333C23.0554 3.49556 21.5599 2 19.7221 2ZM6.38878 5.33333C6.38878 4.72111 6.88767 4.22222 7.49989 4.22222V6.44444H6.38878V5.33333ZM6.38878 8.66667H7.49989V10.8889H6.38878V8.66667ZM6.38878 13.1111H7.49989V15.3333H6.38878V13.1111ZM6.38878 18.6667V17.5556H7.49989V19.7778C6.88767 19.7778 6.38878 19.2789 6.38878 18.6667ZM20.8332 18.6667C20.8332 19.2789 20.3343 19.7778 19.7221 19.7778H8.611V4.22222H19.7221C20.3343 4.22222 20.8332 4.72111 20.8332 5.33333V18.6667Z" fill="#1C1C28"/>
<g clip-path="url(#clip0_1264_1255)">
<path d="M11 11L14 8.66663L17 11V14.6666C17 14.8434 16.9298 15.013 16.8047 15.138C16.6797 15.2631 16.5101 15.3333 16.3333 15.3333H11.6667C11.4899 15.3333 11.3203 15.2631 11.1953 15.138C11.0702 15.013 11 14.8434 11 14.6666V11Z" stroke="#1C1C28" stroke-linecap="round" stroke-linejoin="round"/>
<path d="M13 15.3333V12H15V15.3333" stroke="#1C1C28" stroke-linecap="round" stroke-linejoin="round"/>
</g>
<defs>
<clipPath id="clip0_1264_1255">
<rect width="8" height="8" fill="white" transform="translate(10 8)"/>
</clipPath>
</defs>
</svg>
